<svg xmlns="http://www.w3.org/2000/svg" viewBox="0 0 24 24" xmlns:v="https://vecta.io/nano"><path d="M23.546 10.93L13.067.452a1.55 1.55 0 0 0-2.188 0L8.708 2.627l2.76 2.76c.645-.215 1.379-.07 1.889.441a1.84 1.84 0 0 1 .438 1.9l2.658 2.66c.645-.223 1.387-.078 1.9.435a1.84 1.84 0 0 1 0 2.604c-.719.719-1.881.719-2.6 0-.539-.541-.674-1.337-.404-1.996L12.86 8.955v6.525a1.84 1.84 0 0 1 .488.348 1.85 1.85 0 0 1 0 2.6c-.719.721-1.889.721-2.609 0s-.719-1.879 0-2.598c.182-.18.387-.316.605-.406V8.835c-.217-.091-.424-.222-.6-.401-.545-.545-.676-1.342-.396-2.009L7.636 3.7.45 10.881c-.6.605-.6 1.584 0 2.189l10.48 10.477c.604.604 1.582.604 2.186 0l10.43-10.43c.605-.603.605-1.582 0-2.187"/></svg>