<svg width="38" height="37" viewBox="0 0 38 37" fill="none" xmlns="http://www.w3.org/2000/svg">
<path fill-rule="evenodd" clip-rule="evenodd" d="M23.8027 18.205C23.5044 17.1367 22.9344 16.1283 22.0944 15.29C19.491 12.6867 15.2694 12.685 12.666 15.29L4.33605 23.62C1.73271 26.225 1.73105 30.445 4.33605 33.0483C6.93938 35.6533 11.1627 35.65 13.7627 33.0483L20.166 26.6467L20.721 26.6617C21.3944 26.6617 22.0577 26.595 22.7027 26.4667L14.941 34.2267C13.316 35.8533 11.1827 36.6667 9.04938 36.6667C6.91605 36.6667 4.78271 35.8533 3.15771 34.2267C-0.095621 30.975 -0.095621 25.6933 3.15771 22.4417L11.4877 14.1117C13.1127 12.485 15.2477 11.6717 17.381 11.6717C19.5127 11.6717 21.6477 12.485 23.2727 14.1117C24.0944 14.9333 24.7077 15.8833 25.1144 16.8983L23.8027 18.205ZM14.2977 18.45C14.5944 19.5217 15.166 20.5333 16.0077 21.3767C18.611 23.9817 22.8344 23.9783 25.4344 21.3767L33.766 13.0467C36.371 10.4433 36.371 6.22167 33.766 3.61833C31.1627 1.015 26.941 1.01333 24.3377 3.61833L17.936 10.02L17.381 10.005C16.7077 10.005 16.0444 10.0717 15.3994 10.2L23.1594 2.44C24.7844 0.813333 26.9194 0 29.0527 0C31.1844 0 33.3194 0.813333 34.9444 2.44C38.196 5.69167 38.196 10.9717 34.9444 14.225L26.6127 22.555C24.9877 24.1817 22.8544 24.995 20.721 24.995C18.5877 24.995 16.4544 24.1817 14.8294 22.555C14.006 21.73 13.391 20.7767 12.9844 19.7583L14.2977 18.45Z" fill="#00FFCC"/>
</svg>
