<svg xmlns="http://www.w3.org/2000/svg" viewBox="0 0 24 24" xmlns:v="https://vecta.io/nano"><path d="M17.388 8.329l-.009-.004a.069.069 0 0 1-.032-.066l.484-2.958L20.1 7.57l-2.36 1.004a.052.052 0 0 1-.021.004h-.009a.065.065 0 0 1-.013-.011 1.074 1.074 0 0 0-.31-.239zm3.291-.18l2.426 2.426c.504.505.756.756.848 1.048.014.043.025.086.034.131l-5.798-2.455a.456.456 0 0 0-.009-.004c-.023-.009-.05-.02-.05-.044s.027-.035.051-.044l.008-.003zm3.209 4.383c-.125.235-.369.479-.782.893L20.37 16.16l-3.538-.737-.019-.004c-.031-.005-.064-.011-.064-.039a1.068 1.068 0 0 0-.41-.747c-.014-.014-.011-.037-.006-.058L17 10.482l.003-.014c.004-.031.009-.068.038-.068a1.083 1.083 0 0 0 .726-.416c.006-.006.009-.013.017-.017.02-.009.044 0 .064.009l6.04 2.555zm-4.147 4.257l-4.498 4.498.77-4.732.001-.006a.083.083 0 0 1 .004-.018c.006-.015.023-.021.038-.027l.008-.003a1.158 1.158 0 0 0 .435-.324c.015-.018.033-.035.056-.038a.056.056 0 0 1 .018 0l3.167.651zm-5.45 5.45l-.507.507-5.605-8.101a.265.265 0 0 0-.006-.009c-.009-.012-.018-.024-.016-.038s.007-.019.014-.026l.006-.008.047-.077.012-.022.002-.002c.009-.015.017-.029.032-.038s.031-.004.046-.001l6.21 1.281a.103.103 0 0 1 .048.021c.008.008.01.017.012.027a1.1 1.1 0 0 0 .643.735c.018.009.01.028.002.049a.149.149 0 0 0-.009.028l-.929 5.673zm-1.059 1.058c-.374.37-.594.566-.843.645a1.252 1.252 0 0 1-.755 0c-.292-.093-.544-.344-1.048-.849l-5.629-5.629 1.47-2.28a.094.094 0 0 1 .025-.029c.016-.011.038-.006.057 0a1.524 1.524 0 0 0 1.025-.052c.017-.006.034-.011.047.001a.119.119 0 0 1 .018.02l5.633 8.174zm-8.817-6.376L3.123 15.63l2.55-1.088a.053.053 0 0 1 .021-.004c.021 0 .034.021.045.041a1.821 1.821 0 0 0 .081.115l.008.01c.008.011.003.021-.005.031l-1.408 2.186zm-1.863-1.863L.918 13.425l-.62-.653 4.967 1.03a.526.526 0 0 0 .019.003c.031.005.064.011.064.04s-.037.046-.068.058l-.014.006zM.013 11.932a1.252 1.252 0 0 1 .056-.31c.093-.292.344-.543.849-1.048l2.091-2.091a1361.72 1361.72 0 0 0 2.896 4.185c.017.023.036.048.016.066a1.74 1.74 0 0 0-.247.331.1.1 0 0 1-.031.039c-.008.005-.017.003-.026.001h-.001L.013 11.931zm3.555-4.008L6.38 5.113l2.086.885 1.431.607c.019.008.036.015.044.034.005.011.002.026 0 .038a1.254 1.254 0 0 0 .327 1.144c.019.019 0 .046-.016.069l-.009.013-2.854 4.421c-.008.012-.014.023-.027.031s-.036.005-.054.001a1.423 1.423 0 0 0-.34-.046c-.103 0-.214.019-.327.04H6.64c-.013.002-.024.004-.034-.003a.131.131 0 0 1-.028-.032zm3.379-3.379L10.586.906c.504-.504.756-.756 1.048-.848a1.252 1.252 0 0 1 .755 0c.292.092.544.344 1.048.848l.789.789-2.588 4.008a.097.097 0 0 1-.026.03c-.016.011-.037.006-.056 0a1.313 1.313 0 0 0-1.202.232c-.017.018-.042.008-.063-.002L6.947 4.546zm7.828-2.301l2.39 2.39-.576 3.566v.009a.085.085 0 0 1-.005.024c-.006.012-.019.015-.031.019a1.145 1.145 0 0 0-.343.171.096.096 0 0 0-.012.011c-.007.008-.014.014-.025.016a.071.071 0 0 1-.027-.004l-3.642-1.547-.007-.003c-.023-.009-.051-.021-.051-.045a1.376 1.376 0 0 0-.194-.573c-.018-.029-.037-.059-.022-.088zm-2.461 5.387l3.414 1.446c.019.009.039.017.048.036a.066.066 0 0 1 0 .036.848.848 0 0 0-.019.165v.096c0 .024-.024.034-.047.043l-.007.002L8.1 12.693c-.011 0-.022 0-.033-.011-.019-.019 0-.045.017-.069a.476.476 0 0 0 .009-.012l2.805-4.344.005-.007c.016-.026.035-.056.065-.056l.028.004.177.017c.426 0 .82-.207 1.058-.561a.1.1 0 0 1 .021-.025c.017-.013.042-.006.061.002zm-3.909 5.749l7.686-3.278s.011 0 .022.011c.042.042.078.07.112.096l.017.011c.016.009.031.019.032.035l-.66 4.06-.002.016c-.004.031-.009.067-.038.067a1.082 1.082 0 0 0-.859.53l-.003.005c-.009.014-.017.028-.031.036s-.03.004-.044.001l-6.13-1.264c-.006-.001-.095-.325-.102-.325z"/></svg>